<?xml version="1.0" encoding="utf-8"?>
<svg viewBox="0 0 500 500" xmlns="http://www.w3.org/2000/svg">
  <path d="M 240.559 408.672 C 217.796 408.672 197.309 405.057 179.099 397.826 C 160.889 390.596 145.356 380.353 132.502 367.096 C 119.647 353.84 109.806 337.705 102.977 318.692 C 96.148 299.678 92.734 278.522 92.734 255.223 C 92.734 230.853 96.483 208.626 103.981 188.541 C 111.48 168.456 121.991 151.183 135.515 136.721 C 149.039 122.26 165.24 111.08 184.12 103.18 C 203 95.279 223.822 91.329 246.585 91.329 C 262.653 91.329 277.783 93.606 291.977 98.158 C 306.17 102.711 321.569 110.075 338.172 120.252 L 346.608 95.346 L 360.667 95.346 L 355.445 187.737 L 336.164 187.737 C 336.164 174.615 333.687 163.301 328.732 153.794 C 323.778 144.287 317.284 136.454 309.25 130.294 C 301.216 124.135 292.044 119.582 281.733 116.636 C 271.423 113.691 260.912 112.218 250.2 112.218 C 233.864 112.218 219.269 115.431 206.415 121.859 C 193.56 128.286 182.714 137.525 173.877 149.576 C 165.04 161.627 158.278 176.356 153.591 193.763 C 148.905 211.17 146.561 230.853 146.561 252.813 C 146.561 295.929 155.533 329.069 173.475 352.234 C 191.418 375.398 217.394 386.981 251.405 386.981 C 264.259 386.981 275.775 385.441 285.951 382.361 C 296.128 379.281 304.764 375.13 311.861 369.908 C 318.958 364.686 324.314 358.661 327.929 351.832 C 331.544 345.003 333.352 337.839 333.352 330.341 C 333.352 314.808 330.205 304.297 323.912 298.807 C 317.619 293.318 307.375 290.573 293.182 290.573 L 293.182 275.308 L 407.265 275.308 L 407.265 290.573 C 400.837 290.573 395.481 291.108 391.197 292.179 C 386.912 293.251 383.497 295.192 380.953 298.004 C 378.409 300.816 376.669 304.498 375.731 309.051 C 374.794 313.603 374.325 319.361 374.325 326.324 L 374.325 371.314 C 369.237 371.314 364.618 371.515 360.467 371.917 C 356.316 372.319 351.964 373.256 347.411 374.729 C 342.859 376.202 337.838 378.21 332.348 380.754 C 326.858 383.298 320.364 386.713 312.865 390.998 C 303.492 396.354 292.713 400.638 280.528 403.852 C 268.343 407.066 255.02 408.672 240.559 408.672 Z" style="white-space: pre; fill: rgb(255, 255, 255);"/>
</svg>