<?xml version="1.0" encoding="utf-8"?>
<svg viewBox="30.684 1.395 500 500" xmlns="http://www.w3.org/2000/svg">
  <path d="M 277.8745985961914 395.9299943847656 Q 243.7300985961914 395.9299943847656 216.4144985961914 385.08409438476565 Q 189.09889859619142 374.2381943847656 169.8172985961914 354.35404438476564 Q 150.53569859619142 334.4698943847656 140.2923485961914 305.94919438476563 Q 130.0489985961914 277.4284943847656 130.0489985961914 242.48059438476562 Q 130.0489985961914 205.92589438476563 141.29659859619142 175.79839438476563 Q 152.5441985961914 145.67089438476563 172.8300485961914 123.97909438476563 Q 193.1158985961914 102.28729438476563 221.4357485961914 90.43714438476565 Q 249.75559859619142 78.5869943847656 283.9000985961914 78.5869943847656 Q 308.00209859619144 78.5869943847656 329.2921985961914 85.41589438476564 Q 350.58229859619144 92.24479438476561 375.4876985961914 107.50939438476564 L 383.9233985961914 82.6039943847656 L 397.98289859619143 82.6039943847656 L 392.7607985961914 174.99499438476562 L 373.4791985961914 174.99499438476562 Q 373.4791985961914 155.31169438476562 366.0477485961914 141.05134438476563 Q 358.6162985961914 126.79099438476561 346.5652985961914 117.5518943847656 Q 334.5142985961914 108.3127943847656 319.0488485961914 103.89409438476565 Q 303.5833985961914 99.47539438476565 287.5153985961914 99.47539438476565 Q 263.0116985961914 99.47539438476565 243.7300985961914 109.1161943847656 Q 224.44849859619143 118.75699438476562 211.19239859619142 136.83349438476563 Q 197.93629859619142 154.9099943847656 190.9065485961914 181.0204943847656 Q 183.8767985961914 207.13099438476561 183.8767985961914 240.07039438476562 Q 183.8767985961914 304.7440943847656 210.79069859619142 339.4911443847656 Q 237.7045985961914 374.2381943847656 288.7204985961914 374.2381943847656 Q 308.00209859619144 374.2381943847656 323.2666985961914 369.6186443847656 Q 338.5312985961914 364.9990943847656 349.1763485961914 357.1659443847656 Q 359.82139859619144 349.33279438476563 365.2443485961914 339.0894443847656 Q 370.6672985961914 328.84609438476565 370.6672985961914 317.5984943847656 Q 370.6672985961914 294.2998943847656 361.2273485961914 286.06504438476566 Q 351.7873985961914 277.8301943847656 330.4972985961914 277.8301943847656 L 330.4972985961914 262.56559438476563 L 444.5800985961914 262.56559438476563 L 444.5800985961914 277.8301943847656 Q 434.9392985961914 277.8301943847656 428.51209859619144 279.4369943847656 Q 422.0848985961914 281.04379438476565 418.2687485961914 285.26164438476565 Q 414.4525985961914 289.47949438476564 413.0466485961914 296.3083943847656 Q 411.6406985961914 303.1372943847656 411.6406985961914 313.5814943847656 L 411.6406985961914 358.57189438476564 Q 404.0083985961914 358.57189438476564 397.78204859619143 359.1744443847656 Q 391.5556985961914 359.7769943847656 384.72679859619143 361.98634438476563 Q 377.8978985961914 364.1956943847656 369.6630485961914 368.0118443847656 Q 361.4281985961914 371.82799438476565 350.18059859619143 378.2551943847656 Q 336.1210985961914 386.2891943847656 317.8437485961914 391.1095943847656 Q 299.56639859619145 395.9299943847656 277.8745985961914 395.9299943847656 Z" transform="matrix(1, 0, 0, 1, 0, 0)" style="fill: rgb(51, 51, 51); white-space: pre;"/>
</svg>